HIERARCHY
ROOT Hips
{
	OFFSET	0.00	0.00	0.00
	CHANNELS 6 Xposition Yposition Zposition Zrotation Xrotation Yrotation
	JOINT Spine
	{
		OFFSET	 0.00	0.01	 0.00
		CHANNELS 3 Zrotation Xrotation Yrotation
		JOINT Spine1
		{
			OFFSET	 0.00	 2.45913012437421	 0.00
			CHANNELS 3 Zrotation Xrotation Yrotation
            JOINT Neck
            {
                OFFSET	 0.00	 2.48462964506057	 0.00
                CHANNELS 3 Zrotation Xrotation Yrotation
                JOINT Head
                {
                    OFFSET	 0.00	 0.927524780924562	 0.00
                    CHANNELS 3 Zrotation Xrotation Yrotation
                    End Site 
                    {
                        OFFSET	 0.00	 1.14999962169752	 0.00
                    }
                }
            }
			JOINT LeftShoulder
			{
				OFFSET	 0.00	 2.48462964506057	 0.00
				CHANNELS 3 Zrotation Xrotation Yrotation
				JOINT LeftUpArm
				{
					OFFSET	 0.00	 1.24881979654096	 0.00
					CHANNELS 3 Zrotation Xrotation Yrotation
					JOINT LeftForeArm
					{
						OFFSET	 0.00	2.59758046908119	 0.00
						CHANNELS 3 Zrotation Xrotation Yrotation
						JOINT LeftHand
						{
							OFFSET	 0.00	2.45542024364365	 0.00
							CHANNELS 3 Zrotation Xrotation Yrotation
							JOINT LeftHandThumb 
							{
								OFFSET	 0.00	0.00	 0.00
								CHANNELS 3 Zrotation Xrotation Yrotation
								End Site
								{
									OFFSET	 0.00	0.00	1.00000003353624
								}
							}
							JOINT L_Wrist_End 
							{
								OFFSET	 0.00	0.99999967115358	 0.00
								CHANNELS 3 Zrotation Xrotation Yrotation
								End Site 
								{
									OFFSET	 0.00	 0.00	 0.00
								}
							}
						}
					}
				}
			}
			JOINT RightShoulder
			{
				OFFSET	 0.00	 2.48462964506057	 0.00
				CHANNELS 3 Zrotation Xrotation Yrotation
				JOINT RightUpArm
				{
					OFFSET	 0.00	 1.24881979654096	 0.00
					CHANNELS 3 Zrotation Xrotation Yrotation
					JOINT RightForeArm
					{
						OFFSET	 0.00	2.59758046908119	 0.00
						CHANNELS 3 Zrotation Xrotation Yrotation
						JOINT RightHand
						{
							OFFSET	 0.00	2.45542024364365	 0.00
							CHANNELS 3 Zrotation Xrotation Yrotation
							JOINT RightHandThumb 
							{
								OFFSET	 0.00	0.00	 0.00
								CHANNELS 3 Zrotation Xrotation Yrotation
								End Site
								{
									OFFSET	 0.00	0.00	1.00000003353624
								}
							}
							JOINT R_Wrist_End 
							{
								OFFSET	 0.00	0.99999967115358	 0.00
								CHANNELS 3 Zrotation Xrotation Yrotation
								End Site 
								{
									OFFSET	 0.00	 0.00	 0.00
								}
							}
						}
					}
				}
			}
		}
	}
	JOINT LeftUpLeg
	{
		OFFSET	 1.2719394002717	 0.00	 0.00
		CHANNELS 3 Zrotation Xrotation Yrotation
		JOINT LeftLowLeg
		{
			OFFSET	 0.00	-4.3429100912261	 0.00
			CHANNELS 3 Zrotation Xrotation Yrotation
			JOINT LeftFoot
			{
				OFFSET	 0.00	-4.48767017425826	 0.00
				CHANNELS 3 Zrotation Xrotation Yrotation
				JOINT LeftToeBase
                {
                    OFFSET	 0.00	0.00	 1.51507020887566
                    CHANNELS 3 Zrotation Xrotation Yrotation
                    End Site 
                    {
                        OFFSET	 0.00	0.00	 0.75000010571191
                    }
                }
			}
		}
	}
	JOINT RightUpLeg
	{
		OFFSET	 -1.2719393604653	 0.00	 0.00
		CHANNELS 3 Zrotation Xrotation Yrotation
		JOINT RightLowLeg
		{
			OFFSET	 0.00	-4.3429100912261	 0.00
			CHANNELS 3 Zrotation Xrotation Yrotation
			JOINT RightFoot
			{
				OFFSET	 0.00	-4.48767017425826	 0.00
				CHANNELS 3 Zrotation Xrotation Yrotation
				JOINT RightToeBase
                {
                    OFFSET	 0.00	0.00	 1.51507020887566
                    CHANNELS 3 Zrotation Xrotation Yrotation
                    End Site 
                    {
                        OFFSET	 0.00	0.00	 0.749999965609858
                    }
                }   
			}
		}
	}
}
MOTION 
Frames:	18 
Frame Time: 0.02 
 -5.82041015625 16.183599853515624 10.31280029296875 -70.2458 83.66 58.1881 -8.12456 -12.4464 -11.8662 34.0975 21.732 -5.79184 -20.8485 30.2211 4.3679 46.6607 -67.2306 30.8783 -132.4003 0.839987 -1.46677 -35.932 5.1065 -155.521 0.0 -43.0171 0.0 -3.46681 -1.26957 -177.636 0.0 0.0 0.0 0.0 0.0 0.0 104.8827 -11.7888 -33.6541 25.66 34.1763 6.55222 0.0 19.7176 0.0 -6.32867 -3.10402 10.1163 0.0 0.0 0.0 0.0 0.0 0.0 10.2851 11.8105 28.1325 0.0 3.29341 0.0 -11.9102 8.0221405 4.96634 0.0 -11.70214 0.0 10.7811 5.8143 18.0606 0.0 7.39179 0.0 17.7198 9.62598 -23.0707 0.0 -12.52553 0.0 
  -5.792550048828125 16.1643994140625 10.315 -69.2243 83.4891 57.0096 -8.06229 -12.5225 -11.9646 34.1188 21.6272 -5.86323 -21.0196 30.2373 4.49771 46.6514 -67.2736 31.0012 -132.1938 0.750826 -1.17675 -36.2769 5.33798 -155.627 0.0 -43.2522 0.0 -2.70971 -1.6035 -177.312 0.0 0.0 0.0 0.0 0.0 0.0 104.4856 -11.4508 -31.2944 27.682 33.129 4.10821 0.0 19.9371 0.0 -6.74875 -3.0114 10.0208 0.0 0.0 0.0 0.0 0.0 0.0 10.2152 12.0079 28.1352 0.0 3.5667 0.0 -11.8394 7.73897 5.08236 0.0 -11.6267395 0.0 10.6929 6.00356 18.1543 0.0 7.5351 0.0 17.845 9.58288 -23.0346 0.0 -12.388639 0.0 
  -5.763460083007812 16.144599609375 10.316700439453125 -68.4905 83.3591 56.1539 -7.90124 -12.6072 -12.0314 33.9066 21.393 -5.8936 -20.9374 30.5349 4.32583 47.2588 -67.432 31.9315 -132.0361 0.875208 -1.49748 -36.3485 4.79937 -154.742 0.0 -43.5398 0.0 -2.71683 -1.27252 -176.837 0.0 0.0 0.0 0.0 0.0 0.0 104.7737 -11.507 -31.4344 27.234 33.3148 4.45809 0.0 20.1213 0.0 -6.72105 -2.94263 10.1522 0.0 0.0 0.0 0.0 0.0 0.0 10.1268 12.1302 27.8375 0.0 3.88184 0.0 -11.8352 7.38855 5.43656 0.0 -11.55401 0.0 10.5531 6.19608 18.0568 0.0 7.5611 0.0 17.931 9.627211 -22.8671 0.0 -12.34139 0.0 
  -5.73416015625 16.1247998046875 10.318699951171874 -67.8616 83.2062 55.3235 -7.80408 -12.7337 -12.0999 33.8748 21.3363 -6.02008 -21.154 30.4886 4.57127 47.4107 -67.4644 32.1315 -131.8166 0.972609 -1.73424 -36.6507 4.35401 -153.977 0.0 -43.5954 0.0 -2.83677 -1.49242 -176.056 0.0 0.0 0.0 0.0 0.0 0.0 104.9779 -11.6701 -30.4052 27.3408 33.1511 3.38495 0.0 20.2897 0.0 -6.85737 -2.8987 10.23 0.0 0.0 0.0 0.0 0.0 0.0 10.0297 12.3037 27.4415 0.0 4.14641 0.0 -11.8759 7.03767 5.93529 0.0 -11.39269 0.0 10.4426 6.3658 18.1677 0.0 7.66356 0.0 18.0255 9.64539 -22.81 0.0 -12.30552 0.0 
  -5.70427001953125 16.1052001953125 10.321099853515625 -66.8553 83.0597 54.1313 -7.73738 -12.8144 -12.1849 33.8541 21.2658 -6.12662 -21.4292 30.4581 4.85385 47.6266 -67.5208 32.3271 -131.811 0.905979 -1.41535 -36.6846 4.3733 -153.348 0.0 -43.4851 0.0 -2.6996 -1.4113 -176.173 0.0 0.0 0.0 0.0 0.0 0.0 104.508 -11.279 -26.2042 30.4213 31.0787 -0.762827 0.0 20.5242 0.0 -7.14899 -2.8505 9.73526 0.0 0.0 0.0 0.0 0.0 0.0 9.86881 12.5461 27.0028 0.0 4.32344 0.0 -11.8244 6.7668104 6.50337 0.0 -11.33259 0.0 10.2958 6.58175 18.261 0.0 7.73955 0.0 18.1013 9.65546 -22.7684 0.0 -12.27236 0.0 
  -5.673460083007813 16.084599609375 10.323199462890624 -65.8604 82.8794 52.924 -7.55304 -12.9269 -12.161 33.6278 21.2293 -6.26127 -21.1792 30.6598 4.57613 48.2587 -67.6766 33.4662 -131.6873 1.01761 -1.56413 -36.763 3.87677 -152.241 0.0 -43.2649 0.0 -2.77688 -1.29743 -176.363 0.0 0.0 0.0 0.0 0.0 0.0 104.8775 -11.3951 -25.1435 30.4868 30.7921 -1.6802 0.0 20.6725 0.0 -7.0978 -2.82028 9.74387 0.0 0.0 0.0 0.0 0.0 0.0 9.6985 12.8782 26.8363 0.0 4.37766 0.0 -11.7905 6.5495996 6.82604 0.0 -11.1828 0.0 10.1514 6.84377 18.2898 0.0 7.75944 0.0 18.1336 9.728621 -22.6789 0.0 -12.29667 0.0 
  -5.642069702148437 16.065799560546875 10.324599609375 -65.4319 82.739 52.2257 -7.3888 -13.0728 -12.1245 33.4909 21.1938 -6.34182 -21.497 30.5614 4.99442 48.4769 -67.6508 33.5516 -131.5826 1.07998 -1.65599 -36.935 3.41599 -150.971 0.0 -42.8495 0.0 -3.17157 -1.25545 -176.424 0.0 0.0 0.0 0.0 0.0 0.0 104.7782 -11.2734 -23.5313 31.5217 30.0515 -3.16353 0.0 20.7983 0.0 -7.20165 -2.69409 9.6612 0.0 0.0 0.0 0.0 0.0 0.0 9.49328 13.1852 26.6746 0.0 4.3306 0.0 -11.7831 6.3484097 7.20866 0.0 -11.16282 0.0 10.0103 6.99799 18.3488 0.0 7.83866 0.0 18.1783 9.75834 -22.5291 0.0 -12.12183 0.0 
  -5.6106298828125 16.0456005859375 10.326300048828125 -64.9453 82.5984 51.4678 -7.17851 -13.1797 -12.0543 33.2701 21.1644 -6.43394 -21.1277 30.5949 4.58874 48.7801 -67.8064 34.3218 -131.6385 0.730471 -1.24423 -36.9213 3.6551 -149.987 0.0 -42.2778 0.0 -3.12101 -1.1052 -176.55 0.0 0.0 0.0 0.0 0.0 0.0 105.3375 -11.799 -24.1908 30.3726 31.0037 -2.69629 0.0 20.8536 0.0 -7.11584 -2.86657 10.0241 0.0 0.0 0.0 0.0 0.0 0.0 9.26788 13.5403 26.6893 0.0 4.20838 0.0 -11.7398 6.2292204 7.43644 0.0 -11.12501 0.0 9.85943 7.17617 18.4703 0.0 7.89943 0.0 18.2438 9.773621 -22.4455 0.0 -12.13677 0.0 
  -5.578909912109375 16.026700439453126 10.3275 -64.8204 82.4784 51.0315 -6.99726 -13.3156 -12.0185 33.1415 21.0567 -6.45131 -21.6851 30.4563 5.25861 48.8692 -67.74 34.1913 -131.6624 0.78801 -1.37433 -36.9506 2.98759 -148.574 0.0 -41.8959 0.0 -2.989 -0.421381 -176.482 0.0 0.0 0.0 0.0 0.0 0.0 105.0843 -11.6542 -20.2094 32.8247 28.8816 -6.38055 0.0 20.9686 0.0 -7.17143 -2.83672 9.70062 0.0 0.0 0.0 0.0 0.0 0.0 9.04038 13.868 26.8783 0.0 4.05166 0.0 -11.6949 6.13297 7.52841 0.0 -11.07683 0.0 9.70633 7.30066 18.53 0.0 7.95015 0.0 18.2946 9.81046 -22.2563 0.0 -12.1379795 0.0 
  -5.547109985351563 16.00989990234375 10.3281005859375 -65.1189 82.4425 51.1538 -6.81921 -13.5075 -12.0139 32.7959 20.8484 -6.48588 -21.5524 30.8155 5.161 49.6031 -67.7412 35.2916 -131.44681 0.860465 -1.36282 -37.2205 2.18216 -147.778 0.0 -41.5924 0.0 -2.66025 -0.146599 -175.366 0.0 0.0 0.0 0.0 0.0 0.0 104.9749 -11.1608 -18.5201 34.1006 27.4627 -7.67163 0.0 21.0662 0.0 -7.2078 -2.74561 9.52432 0.0 0.0 0.0 0.0 0.0 0.0 8.81511 14.0346 26.7826 0.0 3.92572 0.0 -11.6571 5.99024 7.76082 0.0 -11.02484 0.0 9.54202 7.32001 18.5551 0.0 7.99477 0.0 18.3591 9.813311 -22.1304 0.0 -12.15123 0.0 
  -5.5152197265625 15.993299560546875 10.329100341796876 -65.279 82.3926 51.1049 -6.65028 -13.5406 -12.0394 32.5788 20.5932 -6.4498 -21.8264 30.8308 5.46785 49.9498 -67.7789 35.6623 -131.3847 0.409746 -0.874095 -37.3401 2.01816 -147.024 0.0 -41.5625 0.0 -2.41828 -0.499638 -173.987 0.0 0.0 0.0 0.0 0.0 0.0 105.1997 -11.5367 -18.8806 33.7423 28.044 -7.56065 0.0 20.9416 0.0 -7.0791 -2.64559 9.60017 0.0 0.0 0.0 0.0 0.0 0.0 8.58032 14.2393 26.8212 0.0 3.77986 0.0 -11.6069 5.8947496 7.89328 0.0 -10.985411 0.0 9.37893 7.35146 18.6537 0.0 8.05922 0.0 18.411 9.825581 -22.0525 0.0 -12.15131 0.0 
  -5.4839599609375 15.97510009765625 10.3293994140625 -65.3666 82.3448 51.0537 -6.33176 -13.6831 -11.9252 31.9787 20.2986 -6.4175 -21.7497 31.3034 5.39085 51.0258 -67.8268 37.0279 -131.0183 0.365583 -0.80413 -37.4325 0.94746 -145.887 0.0 -41.9238 0.0 -2.86665 -1.8498 -171.92 0.0 0.0 0.0 0.0 0.0 0.0 105.1383 -11.1283 -16.8011 35.325 26.3047 -9.02541 0.0 20.9378 0.0 -6.96858 -2.44042 9.24387 0.0 0.0 0.0 0.0 0.0 0.0 8.35134 14.4388 26.6596 0.0 3.63375 0.0 -11.5917 5.7553396 8.13463 0.0 -10.98528 0.0 9.20817 7.43043 18.7379 0.0 8.06192 0.0 18.4697 9.80732 -21.9984 0.0 -12.15081 0.0 
  -5.45291015625 15.961500244140625 10.33030029296875 -65.6395 82.3239 51.171 -6.15189 -13.7139 -11.928 31.6622 20.048 -6.40014 -21.9171 31.4721 5.51716 51.4344 -67.8879 37.562 -130.5945 -0.159977 -0.609394 -37.7357 0.24639 -144.843 0.0 -42.63 0.0 -3.84827 -3.36696 -171.847 0.0 0.0 0.0 0.0 0.0 0.0 105.6633 -11.6686 -16.6418 34.8834 26.7127 -9.46452 0.0 20.7756 0.0 -6.85759 -2.63852 9.42778 0.0 0.0 0.0 0.0 0.0 0.0 8.13707 14.5281 26.53 0.0 3.58854 0.0 -11.5269 5.6088696 8.3402 0.0 -10.976931 0.0 9.05015 7.4136 18.8641 0.0 8.13744 0.0 18.5593 9.77718 -21.9631 0.0 -12.14296 0.0 
  -5.4214599609375 15.948499755859375 10.331600341796875 -65.9647 82.3276 51.3466 -5.91194 -13.7707 -11.8886 31.2627 19.6728 -6.2766 -22.2749 32.0355 5.6754 52.3 -68.0229 38.5612 -130.17621 -0.529414 -0.707593 -37.8316 -0.964428 -143.402 0.0 -43.7869 0.0 -4.75375 -4.06996 -173.202 0.0 0.0 0.0 0.0 0.0 0.0 105.7419 -11.753 -13.4547 36.4165 24.7126 -12.1147 0.0 20.6514 0.0 -6.71332 -2.65725 9.12609 0.0 0.0 0.0 0.0 0.0 0.0 7.91322 14.5681 26.369 0.0 3.58732 0.0 -11.4677 5.4515495 8.63755 0.0 -10.96612 0.0 8.87544 7.37942 19.0823 0.0 8.19967 0.0 18.6843 9.72678 -21.9866 0.0 -12.13001 0.0 
  -5.390919799804688 15.937099609375 10.33239990234375 -66.2765 82.3247 51.5173 -5.7427 -13.7069 -11.9111 30.9212 19.0976 -5.9822 -22.5563 32.9834 5.66444 53.3234 -68.1011 39.9477 -129.6825 -0.802399 -0.635283 -38.0186 -2.41589 -142.215 0.0 -45.1227 0.0 -5.89386 -4.58097 -176.356 0.0 0.0 0.0 0.0 0.0 0.0 105.5943 -11.3064 -12.3304 37.3474 23.1063 -12.7163 0.0 20.5625 0.0 -6.81385 -2.54972 8.91113 0.0 0.0 0.0 0.0 0.0 0.0 7.72231 14.5666 26.3794 0.0 3.66291 0.0 -11.4304 5.26173 8.73608 0.0 -10.84108 0.0 8.71842 7.32185 19.2127 0.0 8.3041 0.0 18.7518 9.70615 -21.9607 0.0 -12.16356 0.0 
  -5.35948974609375 15.9277001953125 10.333800048828126 -66.3928 82.3388 51.7207 -5.70727 -13.5123 -12.0676 30.8576 18.5366 -5.70836 -23.1471 33.5648 5.87456 53.6602 -68.2926 40.3281 -129.4211 -1.58054 -0.40725 -37.9864 -3.10651 -140.74 0.0 -46.5069 0.0 -6.55323 -4.66073 -179.767 0.0 0.0 0.0 0.0 0.0 0.0 105.8465 -11.9823 -14.5506 36.3266 24.7165 -11.0538 0.0 20.2517 0.0 -6.72566 -2.68135 9.18098 0.0 0.0 0.0 0.0 0.0 0.0 7.56771 14.4565 26.1036 0.0 3.82395 0.0 -11.2917 5.0710697 8.97313 0.0 -10.80713 0.0 8.55295 7.27773 19.1054 0.0 8.36381 0.0 18.8339 9.690229 -21.9423 0.0 -12.27819 0.0 
  -5.3292999267578125 15.91989990234375 10.335400390625 -66.3161 82.312 51.5268 -5.65927 -13.3609 -12.0701 30.8191 18.0873 -5.33979 -23.8063 34.2601 6.15086 53.9694 -68.4302 40.7266 -129.135 -2.04774 -0.617974 -37.9522 -4.38312 -139.333 0.0 -47.9165 0.0 -6.54601 -4.55211 -182.652 0.0 0.0 0.0 0.0 0.0 0.0 105.7695 -12.156 -11.8507 37.5571 22.7546 -13.1768 0.0 20.0418 0.0 -6.74515 -2.82198 9.19467 0.0 0.0 0.0 0.0 0.0 0.0 7.38966 14.4551 26.1493 0.0 3.95723 0.0 -11.1573 4.9439 9.10559 0.0 -10.81535 0.0 8.40532 7.22686 19.2504 0.0 8.51767 0.0 18.9343 9.66061 -21.9516 0.0 -12.2924 0.0 
  -5.298590087890625 15.9118994140625 10.335999755859374 -66.2246 82.3068 51.5389 -5.56381 -13.2306 -12.0908 30.5637 17.537 -4.99482 -23.7833 35.5365 5.54166 54.8603 -68.6002 42.1989 -128.7747 -2.47862 -0.574277 -37.9409 -5.49308 -138.182 0.0 -49.1096 0.0 -6.75308 -4.67935 -185.105 0.0 0.0 0.0 0.0 0.0 0.0 105.6088 -11.8543 -13.0752 37.7267 22.5651 -11.7073 0.0 19.7968 0.0 -6.78908 -2.76428 9.30186 0.0 0.0 0.0 0.0 0.0 0.0 7.25467 14.3438 25.8972 0.0 4.17044 0.0 -10.8065 4.8434 9.31642 0.0 -11.096 0.0 8.25394 7.18191 19.1026 0.0 8.62961 0.0 18.9995 9.65103 -21.9058 0.0 -12.36246 0.0 
